<svg id="Layer_1" enable-background="new 0 0 512 512" height="512" viewBox="0 0 512 512" width="512" xmlns="http://www.w3.org/2000/svg"><g><g><path d="m332.012 314.928c71.109-77.934 83.982 38.694 83.982 38.694s20.386-39.42 38.146-39.231c50.517.537 22.681 142.943 22.681 142.943 112.375-285.646-80.415-426.74-80.415-426.74 32.991 224.761-118.859 240.746-118.859 240.746h-43.094s-151.85-15.985-118.859-240.746c0 0-192.791 141.094-80.415 426.74 0 0-27.836-142.405 22.681-142.943 17.76-.189 38.146 39.231 38.146 39.231s12.378-116.628 83.982-38.694z" fill="#e8edf2"/></g><g fill="#d9e7ec"><path d="m193.246 271.34h41.207s-151.85-15.985-118.859-240.746c0 0-21.315 15.605-45.639 46.93-6.721 180.12 123.291 193.816 123.291 193.816z"/><path d="m396.406 30.594c2.464 16.783 3.889 32.394 4.432 46.93 36 46.362 78.581 127.172 68.419 242.842 29.043 27.057 7.564 136.968 7.564 136.968 112.376-285.647-80.415-426.74-80.415-426.74z"/></g><g><g><g><path d="m252.005 512 52.923-161.424 20.153-9.715c13.062-6.297 26.576-5.927 38.135-1.093 26.931 11.262 37.476 44.426 23.032 70.078l-40.252 71.486 18.014.102c15.601 1.22 27.888 14.434 27.888 30.566h-99.512l38.49-98.847-38.49 98.847z" fill="#8d9ca8"/></g><g><path d="m261.109 512-52.923-161.424-20.153-9.715c-13.062-6.297-26.576-5.927-38.135-1.093-26.931 11.262-37.476 44.426-23.032 70.078l40.252 71.486-18.014.102c-15.601 1.22-27.888 14.434-27.888 30.566h99.512l-38.49-98.847 38.49 98.847z" fill="#8d9ca8"/></g></g><path d="m237.03 512h-33.94l-37.847-168.207c-13.294-59.086 30.988-115.387 90.757-115.387 59.768 0 104.051 56.3 90.756 115.387l-37.846 168.207h-33.94z" fill="#596c76"/><g fill="#596c76"><path d="m276.517 185.564 47.672-36.655s32.037 57.223-18.623 79.497z"/><path d="m235.483 185.564-47.672-36.655s-32.037 57.223 18.623 79.497z"/></g><path d="m302.293 289.242-21.511 25.804c-4.113 4.934-10.162 7.781-16.533 7.781h-16.496c-6.372 0-12.42-2.846-16.533-7.781l-21.511-25.804c-5.549-6.657-8.594-15.091-8.594-23.807v-47.512c0-20.367 16.283-36.879 36.369-36.879h37.034c20.086 0 36.369 16.511 36.369 36.879v47.512c0 8.715-3.045 17.15-8.594 23.807z" fill="#8d9ca8"/><path d="m274.517 181.043h-37.034c-.701 0-1.395.025-2.087.065 19.115 1.097 34.283 17.157 34.283 36.814v47.513c0 8.716-3.045 17.151-8.594 23.807l-21.511 25.804c-1.232 1.478-2.641 2.765-4.178 3.848 3.592 2.532 7.893 3.933 12.356 3.933h16.496c6.372 0 12.42-2.846 16.533-7.781l21.511-25.804c5.549-6.657 8.594-15.091 8.594-23.807v-47.513c.001-20.368-16.282-36.879-36.369-36.879z" fill="#7a8c98"/><g fill="#465a61"><path d="m231.75 366.597c-4.268 0-7.726 3.459-7.726 7.726v111.129c0 4.267 3.459 7.726 7.726 7.726s7.726-3.459 7.726-7.726v-111.128c0-4.267-3.458-7.727-7.726-7.727z"/><path d="m280.251 366.597c-4.268 0-7.726 3.459-7.726 7.726v111.129c0 4.267 3.459 7.726 7.726 7.726 4.268 0 7.726-3.459 7.726-7.726v-111.128c0-4.267-3.458-7.727-7.726-7.727z"/></g><g fill="#e8edf2"><path d="m204.694 138.314s14.939 24.814 12.519 52.461c-.681 7.784 6.121 14.309 14.582 13.847 7.132-.389 12.859-5.664 13.259-12.235.949-15.621-3.075-52.149-40.36-54.073z"/><path d="m306.917 138.314s-14.939 24.814-12.519 52.461c.681 7.784-6.121 14.309-14.582 13.847-7.132-.389-12.859-5.664-13.259-12.235-.95-15.621 3.074-52.149 40.36-54.073z"/></g><g fill="#7a8c98"><path d="m254.317 512h-74.134v-.212c0-16.82 13.635-30.455 30.455-30.455h13.224c16.82 0 30.455 13.635 30.455 30.455z"/><path d="m331.817 512h-74.134v-.212c0-16.82 13.635-30.455 30.455-30.455h13.224c16.82 0 30.455 13.635 30.455 30.455z"/></g></g><g fill="#b6c4cf"><g><path d="m438.671 240.684c-.265 0-.533-.014-.803-.041-4.244-.438-7.33-4.234-6.891-8.479 5-48.446 2.928-84.761-6.722-117.751-1.198-4.096 1.151-8.387 5.246-9.585 4.097-1.2 8.387 1.152 9.585 5.246 10.238 35.002 12.478 73.145 7.262 123.676-.41 3.976-3.766 6.934-7.677 6.934z"/><path d="m427.553 302.754c-.746 0-1.505-.109-2.256-.338-4.081-1.244-6.382-5.561-5.138-9.643.07-.232 4.032-13.375 5.7-26.232.549-4.232 4.431-7.217 8.656-6.668 4.231.549 7.217 4.424 6.668 8.656-1.844 14.222-6.064 28.162-6.243 28.749-1.015 3.331-4.077 5.476-7.387 5.476z"/></g><g><path d="m73.568 240.684c-3.911 0-7.267-2.958-7.676-6.934-5.216-50.53-2.977-88.673 7.261-123.676 1.197-4.094 5.483-6.447 9.585-5.246 4.096 1.198 6.445 5.489 5.246 9.585-9.649 32.99-11.721 69.306-6.721 117.751.439 4.244-2.647 8.041-6.891 8.479-.271.028-.54.041-.804.041z"/><path d="m84.685 302.753c-3.31 0-6.372-2.144-7.387-5.475-.178-.587-4.397-14.527-6.241-28.748-.549-4.232 2.437-8.107 6.668-8.656 4.232-.545 8.108 2.437 8.656 6.668 1.674 12.907 5.66 26.103 5.7 26.234 1.241 4.082-1.06 8.398-5.142 9.64-.75.229-1.509.337-2.254.337z"/></g><path d="m133.351 5.279c1.457-3.419-2.342-6.674-5.432-4.66-17.293 11.271-45.099 32.247-44.823 50.449.292 19.233 31.706 24.164 35.908 5.835 3.764-16.416 8.348-37.545 14.347-51.624z"/><path d="m374.74 5.279c-1.457-3.419 2.342-6.674 5.432-4.66 17.293 11.271 45.099 32.247 44.823 50.449-.292 19.233-31.706 24.164-35.908 5.835-3.765-16.416-8.349-37.545-14.347-51.624z"/></g></g></svg>