<svg id="Capa_1" enable-background="new 0 0 512 512" height="512" viewBox="0 0 512 512" width="512" xmlns="http://www.w3.org/2000/svg"><g><path d="m386.318 512h-260.636c-13.258 0-23.138-12.239-20.346-25.198l3.235-14.999c7.489-34.717 26.589-64.479 52.694-85.546 3.688-2.977 7.52-5.79 11.486-8.406h166.498c31.956 21.16 55.63 54.321 64.18 93.952l3.235 14.999c2.792 12.959-7.088 25.198-20.346 25.198z" fill="#95d6a4"/><path d="m406.663 486.799-3.235-14.999c-6.851-31.761-23.418-59.362-46.174-79.968 1.841 8.896 2.811 18.11 2.811 27.551 0 35.836-13.94 68.413-36.686 92.618h62.939c13.262-.001 23.141-12.238 20.345-25.202z" fill="#78c2a4"/><path d="m256 479.74c45.979 0 83.252-37.273 83.252-83.252v-18.641c-24.036-15.923-52.754-25.067-83.252-25.067-30.498 0-59.216 9.144-83.252 25.067v18.641c0 45.979 37.273 83.252 83.252 83.252z" fill="#f4fbff"/><path d="m369.431 57.236-10.407 139.447h54.114l-10.406-139.447z" fill="#f4fbff"/><path d="m413.138 300.748c28.737 0 52.033-23.296 52.033-52.033s-23.296-52.033-52.033-52.033h-10.406v104.065h10.406z" fill="#a2aae2"/><path d="m413.138 278.894h-10.406v21.854h10.406c28.737 0 52.033-23.296 52.033-52.033 0-3.749-.405-7.403-1.159-10.927-5.021 23.489-25.886 41.106-50.874 41.106z" fill="#8993da"/><path d="m367.577 82.073c5.776 2.108 12.007 3.261 18.504 3.261 6.496 0 12.728-1.153 18.504-3.261l-1.853-24.837h-33.301z" fill="#ddeafb"/><circle cx="386.081" cy="31.22" fill="#95d6a4" r="31.22"/><path d="m402.124 4.436c2.815 4.689 4.436 10.176 4.436 16.043 0 17.242-13.978 31.22-31.22 31.22-5.867 0-11.354-1.621-16.043-4.436 5.457 9.091 15.408 15.177 26.784 15.177 17.242 0 31.22-13.977 31.22-31.22 0-11.376-6.086-21.327-15.177-26.784z" fill="#78c2a4"/><path d="m363.83 132.291-4.805 64.392h54.114l-2.155-28.881c-12.641-15.245-28.772-27.49-47.154-35.511z" fill="#ddeafb"/><path d="m142.569 57.236 10.407 139.447h-54.114l10.406-139.447z" fill="#f4fbff"/><path d="m98.862 300.748c-28.737 0-52.033-23.296-52.033-52.033s23.296-52.033 52.033-52.033h10.407v104.065h-10.407z" fill="#a2aae2"/><path d="m98.862 278.894h10.407v21.854h-10.407c-28.737 0-52.033-23.296-52.033-52.033 0-3.749.405-7.403 1.159-10.927 5.021 23.489 25.886 41.106 50.874 41.106z" fill="#8993da"/><path d="m144.423 82.073c-5.776 2.108-12.007 3.261-18.504 3.261s-12.728-1.153-18.504-3.261l1.853-24.837h33.301z" fill="#ddeafb"/><circle cx="125.919" cy="31.22" fill="#95d6a4" r="31.22"/><path d="m99.135 47.262c4.689 2.815 10.176 4.436 16.043 4.436 17.242 0 31.22-13.978 31.22-31.22 0-5.867-1.621-11.354-4.436-16.043 9.091 5.457 15.177 15.408 15.177 26.784 0 17.242-13.977 31.22-31.22 31.22-11.375 0-21.327-6.086-26.784-15.177z" fill="#78c2a4"/><path d="m148.17 132.291 4.805 64.392h-54.113l2.155-28.881c12.64-15.245 28.771-27.49 47.153-35.511z" fill="#ddeafb"/><path d="m313.236 352.78h-114.472c-57.473 0-104.065-46.591-104.065-104.065 0-57.473 46.591-104.065 104.065-104.065h114.472c57.473 0 104.065 46.591 104.065 104.065 0 57.474-46.592 104.065-104.065 104.065z" fill="#95d6a4"/><path d="m375.289 165.171c6.965 17.83 10.792 37.232 10.792 57.528 0 53.845-26.911 101.398-68.01 129.966 55.228-2.526 99.23-48.097 99.23-103.949 0-34.219-16.517-64.578-42.012-83.545z" fill="#78c2a4"/><path d="m198.764 319.48c-39.019 0-70.764-31.745-70.764-70.764s31.745-70.764 70.764-70.764h114.472c39.019 0 70.764 31.745 70.764 70.764s-31.745 70.764-70.764 70.764z" fill="#a2aae2"/><g fill="#e28086"><path d="m330.872 223.369-48.372 22.252c-4.433 2.039-6.854 6.915-5.743 11.666 4.068 17.382 20.239 30.106 39.139 28.8 18.67-1.289 33.707-16.553 34.743-35.24.504-9.085-2.236-17.511-7.163-24.234-2.886-3.941-8.165-5.285-12.604-3.244z"/><path d="m181.128 223.369 48.372 22.251c4.433 2.039 6.854 6.915 5.743 11.666-4.068 17.382-20.239 30.106-39.139 28.8-18.67-1.289-33.707-16.553-34.743-35.24-.504-9.085 2.236-17.511 7.163-24.234 2.886-3.94 8.165-5.284 12.604-3.243z"/><path d="m272.65 428.748h-33.3c-9.196 0-16.65-7.455-16.65-16.65 0-9.196 7.455-16.65 16.65-16.65h33.301c9.196 0 16.65 7.455 16.65 16.65 0 9.195-7.455 16.65-16.651 16.65z"/></g></g></svg>