<svg id="Capa_1" enable-background="new 0 0 512 512" height="512" viewBox="0 0 512 512" width="512" xmlns="http://www.w3.org/2000/svg"><g><g><path d="m441.625 512h-60.25l-293.25-263.5 293.25-248.5h60.25c23.435 0 42.5 19.065 42.5 42.5v427c0 23.435-19.065 42.5-42.5 42.5z" fill="#e62b6f"/></g><path d="m381.375 0h-311c-23.435 0-42.5 19.065-42.5 42.5v427c0 23.435 19.065 42.5 42.5 42.5h311c23.435 0 42.5-19.065 42.5-42.5v-427c0-23.435-19.065-42.5-42.5-42.5z" fill="#2b3745"/><path d="m381.375 0h-155.5v512h155.5c23.435 0 42.5-19.065 42.5-42.5v-427c0-23.435-19.065-42.5-42.5-42.5z" fill="#23272b"/><g><path d="m302.436 439h-153.122c-7.735 0-14.005-6.27-14.005-14.005 0-13.386-10.89-24.276-24.276-24.276-7.735 0-14.005-6.27-14.005-14.005v-261.428c0-7.735 6.27-14.005 14.005-14.005 13.385 0 24.276-10.89 24.276-24.276 0-7.735 6.27-14.005 14.005-14.005h153.122c7.735 0 14.005 6.27 14.005 14.005 0 13.386 10.89 24.276 24.276 24.276 7.735 0 14.005 6.27 14.005 14.005v261.429c0 7.735-6.27 14.005-14.005 14.005-13.385 0-24.276 10.89-24.276 24.276 0 7.734-6.27 14.004-14.005 14.004z" fill="#c38cf0"/></g><g><path d="m307.875 452h-164c-8.284 0-15-6.716-15-15 0-14.336-11.664-26-26-26-8.284 0-15-6.716-15-15v-280c0-8.284 6.716-15 15-15 14.336 0 26-11.664 26-26 0-8.284 6.716-15 15-15h164c8.284 0 15 6.716 15 15 0 14.336 11.664 26 26 26 8.284 0 15 6.716 15 15v280c0 8.284-6.716 15-15 15-14.336 0-26 11.664-26 26 0 8.284-6.716 15-15 15zm-151.04-30h138.08c5.244-18.841 20.118-33.715 38.96-38.96v-254.08c-18.842-5.245-33.716-20.119-38.96-38.96h-138.08c-5.244 18.841-20.118 33.715-38.96 38.96v254.08c18.842 5.245 33.716 20.119 38.96 38.96z" fill="#b473f0"/></g><path d="m340.717 111.281c-13.385 0-24.275-10.89-24.275-24.276 0-7.735-6.271-14.005-14.005-14.005h-76.561v366h76.561c7.735 0 14.005-6.27 14.005-14.005 0-13.385 10.89-24.276 24.275-24.276 7.735 0 14.005-6.27 14.005-14.005v-261.428c0-7.735-6.27-14.005-14.005-14.005z" fill="#b473f0"/><path d="m348.875 101c-14.336 0-26-11.664-26-26 0-8.284-6.716-15-15-15h-82v30h69.04c5.244 18.841 20.118 33.715 38.96 38.96v254.08c-18.842 5.245-33.716 20.119-38.96 38.96h-69.04v30h82c8.284 0 15-6.716 15-15 0-14.336 11.664-26 26-26 8.284 0 15-6.716 15-15v-280c0-8.284-6.716-15-15-15z" fill="#945eff"/><g><path d="m225.875 331.044c-5.359 0-10.311-2.859-12.99-7.5l-69.333-120.089c-2.68-4.641-2.68-10.359 0-15s7.631-7.5 12.99-7.5h138.666c5.359 0 10.311 2.859 12.99 7.5s2.68 10.359 0 15l-69.333 120.089c-2.679 4.642-7.631 7.5-12.99 7.5zm-43.353-120.088 43.353 75.089 43.353-75.089z" fill="#b473f0"/></g><path d="m295.208 180.956h-69.333v30h43.353l-43.353 75.089v45c5.359 0 10.311-2.859 12.99-7.5l69.333-120.089c2.68-4.641 2.68-10.359 0-15s-7.631-7.5-12.99-7.5z" fill="#945eff"/></g></svg>