<svg id="Layer_1_1_" enable-background="new 0 0 64 64" height="512" viewBox="0 0 64 64" width="512" xmlns="http://www.w3.org/2000/svg"><path d="m19 56h26c1.103 0 2-.897 2-2v-44c0-1.103-.897-2-2-2h-26c-1.103 0-2 .897-2 2v44c0 1.103.897 2 2 2zm15-7c0 1.103-.897 2-2 2h-2c-1.103 0-2-.897-2-2v-2c0-1.103.897-2 2-2h2c1.103 0 2 .897 2 2zm-12-26c0-4.411 3.589-8 8-8h4c4.411 0 8 3.589 8 8v3c0 4.411-3.589 8-8 8v6c0 1.654-1.346 3-3 3s-3-1.346-3-3v-7.501c0-1.202.468-2.332 1.318-3.181s1.979-1.318 3.18-1.318h.001c1.94 0 3.5-1.561 3.5-3.479 0-.945-.364-1.832-1.026-2.496-.659-.66-1.537-1.025-2.472-1.025 0 0 0 0-.001 0h-.888c-1.991 0-3.612 1.621-3.612 3.613 0 1.316-1.071 2.387-2.387 2.387h-1.226c-1.316 0-2.387-1.071-2.387-2.387z"/><path d="m30 47h2.001v2h-2.001z"/><path d="m24.387 25h1.226c.213 0 .387-.174.387-.387 0-3.095 2.518-5.613 5.613-5.613h.887.001c1.47 0 2.852.573 3.889 1.615s1.61 2.429 1.61 3.907c0 3.021-2.458 5.478-5.479 5.478-.689 0-1.316.26-1.789.731-.472.473-.732 1.101-.732 1.768v7.501c0 .551.449 1 1 1s1-.449 1-1v-6c0-1.103.897-2 2-2 3.309 0 6-2.691 6-6v-3c0-3.309-2.691-6-6-6h-4c-3.309 0-6 2.691-6 6v1.613c0 .213.174.387.387.387z"/><path d="m17 60h30c2.206 0 4-1.794 4-4v-48c0-2.206-1.794-4-4-4h-30c-2.206 0-4 1.794-4 4v48c0 2.206 1.794 4 4 4zm-2-50c0-2.206 1.794-4 4-4h26c2.206 0 4 1.794 4 4v44c0 2.206-1.794 4-4 4h-26c-2.206 0-4-1.794-4-4z"/></svg>